# xmcd CD database file
#
# Track frame offsets:
#	150
#	14778
#	29287
#	43478
#	57256
#	75956
#	87298
#	104650
#	119562
#	134755
#
# Disc length: 2000 seconds
#
# Revision: 0
# Processed by: cddbd v1.5.2PL0 Copyright (c) Steve Scherf et al.
# Submitted via: CDex 1.70beta2
#
DISCID=8f07ce0a
DTITLE=Norah Jones - You're the Voice
DYEAR=2009
DGENRE=Jazz
TTITLE0=Come Away With Me
TTITLE1=Don't Know Why
TTITLE2=Don't Miss You At All
TTITLE3=Feelin' The Same Way
TTITLE4=Nightingale
TTITLE5=Painter Song
TTITLE6=The Prettiest Thing
TTITLE7=Sunrise
TTITLE8=Those Sweet Words
TTITLE9=What Am I To You
EXTD=YEAR: 2009
EXTT0=
EXTT1=
EXTT2=
EXTT3=
EXTT4=
EXTT5=
EXTT6=
EXTT7=
EXTT8=
EXTT9=
PLAYORDER=
